<svg id="svg" version="1.1" xmlns="http://www.w3.org/2000/svg" xmlns:xlink="http://www.w3.org/1999/xlink" width="400" height="400" viewBox="0, 0, 400,400"><g id="svgg"><path id="path0" d="M71.481 19.853 C 71.326 20.007,71.200 20.523,71.200 20.999 C 71.200 22.186,150.602 185.574,151.729 186.706 C 152.299 187.279,156.012 188.803,161.816 190.847 C 166.867 192.626,179.370 197.017,189.600 200.607 C 199.830 204.196,221.340 211.757,237.400 217.408 C 279.266 232.140,276.000 231.147,276.000 229.147 C 276.000 228.663,270.496 216.937,263.768 203.089 C 257.041 189.240,239.117 152.325,223.937 121.055 C 193.807 58.986,195.884 62.845,191.848 61.461 C 190.281 60.925,177.390 56.401,163.200 51.409 C 149.010 46.416,127.230 38.760,114.800 34.395 C 102.370 30.030,88.138 25.027,83.174 23.278 C 73.553 19.886,71.924 19.409,71.481 19.853 M258.440 160.900 C 258.256 161.395,258.197 162.070,258.309 162.400 C 258.654 163.414,288.106 224.141,288.718 225.100 C 289.404 226.175,290.833 226.271,291.704 225.300 C 292.321 224.613,314.551 173.340,315.243 171.009 C 316.186 167.831,317.301 168.126,288.038 163.790 C 259.963 159.630,258.949 159.531,258.440 160.900 M288.200 165.616 C 313.445 169.343,313.910 169.445,313.311 171.139 C 312.952 172.154,292.604 219.582,291.750 221.395 C 290.436 224.183,289.934 223.809,287.081 217.923 C 281.919 207.272,270.589 183.958,265.773 174.077 C 259.493 161.191,259.521 161.300,262.600 161.814 C 263.260 161.924,274.780 163.635,288.200 165.616 M323.029 184.900 C 321.820 186.745,316.800 198.951,316.800 200.045 C 316.800 201.568,317.498 201.970,324.337 204.379 C 333.629 207.653,333.494 207.893,329.371 195.478 C 325.329 183.306,324.729 182.305,323.029 184.900 M155.341 202.826 C 153.856 203.376,153.907 204.068,158.823 249.383 C 163.986 296.975,163.835 296.000,166.024 296.000 C 167.278 296.000,269.866 247.008,271.267 245.739 C 273.756 243.486,276.855 244.735,213.932 222.637 C 151.955 200.871,156.485 202.403,155.341 202.826 M171.658 209.633 C 179.216 212.291,203.760 220.914,226.200 228.795 C 274.232 245.663,270.249 244.094,268.295 245.374 C 266.627 246.467,168.214 293.630,167.113 293.864 C 166.233 294.051,165.949 293.914,165.623 293.147 C 165.093 291.900,155.829 206.223,156.137 205.419 C 156.534 204.385,157.426 204.627,171.658 209.633 M141.272 227.700 C 140.717 228.881,91.829 367.773,89.379 375.129 C 89.033 376.169,89.998 377.287,91.021 377.030 C 91.891 376.812,148.630 344.045,153.462 340.971 C 156.202 339.227,156.231 339.001,155.040 328.352 C 154.490 323.428,153.573 315.080,153.003 309.800 C 146.502 249.564,144.018 227.582,143.632 226.859 C 142.930 225.548,142.154 225.825,141.272 227.700 " stroke="none" fill="#ffffff" fill-rule="evenodd"></path><path id="path1" d="M260.857 161.957 C 260.109 162.430,260.171 162.583,265.773 174.077 C 270.589 183.958,281.919 207.272,287.081 217.923 C 289.934 223.809,290.436 224.183,291.750 221.395 C 292.604 219.582,312.952 172.154,313.311 171.139 C 313.910 169.445,313.445 169.343,288.200 165.616 C 274.780 163.635,263.260 161.924,262.600 161.814 C 261.940 161.703,261.156 161.768,260.857 161.957 M156.137 205.419 C 155.829 206.223,165.093 291.900,165.623 293.147 C 165.949 293.914,166.233 294.051,167.113 293.864 C 168.214 293.630,266.627 246.467,268.295 245.374 C 270.249 244.094,274.232 245.663,226.200 228.795 C 203.760 220.914,179.216 212.291,171.658 209.633 C 157.426 204.627,156.534 204.385,156.137 205.419 " stroke="none" fill="#ffffff" fill-rule="evenodd"></path><path id="path2" d="M47.571 1.859 C 45.258 6.637,45.655 8.069,54.077 25.369 C 57.835 33.086,62.034 41.740,63.410 44.600 C 64.785 47.460,68.199 54.480,70.996 60.200 C 73.794 65.920,76.518 71.544,77.052 72.697 C 77.585 73.851,81.076 81.032,84.810 88.656 C 88.545 96.281,91.600 102.561,91.600 102.614 C 91.600 102.666,94.321 108.264,97.646 115.054 C 100.972 121.844,104.549 129.200,105.596 131.400 C 106.642 133.600,110.695 141.970,114.601 150.000 C 124.808 170.979,129.251 180.151,132.643 187.241 L 135.630 193.482 131.780 204.441 C 129.663 210.469,126.706 218.910,125.210 223.200 C 123.714 227.490,121.913 232.620,121.208 234.600 C 120.503 236.580,119.244 240.180,118.411 242.600 C 117.577 245.020,115.988 249.520,114.880 252.600 C 113.772 255.680,110.850 263.960,108.388 271.000 C 105.925 278.040,102.959 286.500,101.797 289.800 C 100.635 293.100,97.941 300.750,95.810 306.800 C 93.680 312.850,90.527 321.850,88.804 326.800 C 87.081 331.750,83.751 341.200,81.405 347.800 C 77.655 358.347,73.794 369.387,72.801 372.400 C 72.620 372.950,71.444 376.280,70.189 379.800 C 66.663 389.681,66.399 390.646,66.416 393.536 C 66.428 395.448,66.682 396.708,67.316 398.000 L 68.200 399.800 76.656 399.908 L 85.112 400.016 93.256 395.273 C 97.735 392.665,108.780 386.244,117.800 381.005 C 126.820 375.765,140.230 367.972,147.600 363.687 C 154.970 359.402,162.710 354.907,164.800 353.698 C 172.644 349.160,173.948 346.007,172.418 335.277 C 172.208 333.805,171.842 330.710,171.604 328.400 C 171.366 326.090,171.005 322.760,170.801 321.000 C 170.598 319.240,170.323 316.614,170.191 315.165 L 169.950 312.529 172.675 311.302 C 174.174 310.626,182.870 306.481,192.000 302.089 C 201.130 297.698,217.510 289.829,228.400 284.604 C 239.290 279.378,255.490 271.598,264.400 267.314 C 273.310 263.031,283.660 258.064,287.400 256.277 C 299.989 250.263,297.834 253.216,309.046 226.614 C 310.898 222.222,312.558 218.482,312.737 218.303 C 312.915 218.125,316.197 219.080,320.031 220.427 C 343.086 228.525,343.943 228.724,348.014 226.924 C 353.524 224.486,354.849 219.277,352.066 211.000 C 351.400 209.020,347.316 196.960,342.991 184.200 C 338.665 171.440,334.928 160.401,334.686 159.669 C 334.040 157.711,331.459 154.990,329.507 154.209 C 327.495 153.404,326.551 153.234,312.800 151.200 C 309.610 150.728,306.010 150.188,304.800 150.000 C 303.590 149.812,300.080 149.287,297.000 148.833 C 293.920 148.379,287.710 147.463,283.200 146.797 C 278.690 146.131,270.680 144.963,265.400 144.201 C 260.120 143.439,255.198 142.711,254.461 142.583 C 253.056 142.338,251.983 140.332,241.200 117.800 C 240.147 115.600,237.085 109.300,234.396 103.800 C 231.706 98.300,228.379 91.460,227.001 88.600 C 225.623 85.740,222.876 80.070,220.896 76.000 C 218.916 71.930,215.462 64.820,213.221 60.200 C 207.600 48.616,208.357 49.267,195.179 44.674 C 190.461 43.029,178.140 38.706,167.800 35.067 C 157.460 31.428,136.130 23.932,120.400 18.409 C 104.670 12.886,86.467 6.485,79.948 4.184 L 68.097 0.000 58.284 0.000 L 48.471 0.000 47.571 1.859 M83.174 23.278 C 88.138 25.027,102.370 30.030,114.800 34.395 C 127.230 38.760,149.010 46.416,163.200 51.409 C 177.390 56.401,190.281 60.925,191.848 61.461 C 195.884 62.845,193.807 58.986,223.937 121.055 C 239.117 152.325,257.041 189.240,263.768 203.089 C 270.496 216.937,276.000 228.663,276.000 229.147 C 276.000 231.147,279.266 232.140,237.400 217.408 C 221.340 211.757,199.830 204.196,189.600 200.607 C 179.370 197.017,166.867 192.626,161.816 190.847 C 156.012 188.803,152.299 187.279,151.729 186.706 C 150.602 185.574,71.200 22.186,71.200 20.999 C 71.200 19.072,71.294 19.090,83.174 23.278 M288.038 163.790 C 317.301 168.126,316.186 167.831,315.243 171.009 C 314.551 173.340,292.321 224.613,291.704 225.300 C 290.833 226.271,289.404 226.175,288.718 225.100 C 288.106 224.141,258.654 163.414,258.309 162.400 C 257.236 159.246,257.440 159.256,288.038 163.790 M325.735 185.100 C 326.040 185.705,327.677 190.375,329.371 195.478 C 333.494 207.893,333.629 207.653,324.337 204.379 C 315.327 201.205,315.558 201.795,319.620 192.354 C 323.459 183.430,324.355 182.367,325.735 185.100 M213.932 222.637 C 276.855 244.735,273.756 243.486,271.267 245.739 C 269.866 247.008,167.278 296.000,166.024 296.000 C 163.835 296.000,163.986 296.975,158.823 249.383 C 153.907 204.068,153.856 203.376,155.341 202.826 C 156.485 202.403,151.955 200.871,213.932 222.637 M143.632 226.859 C 144.018 227.582,146.502 249.564,153.003 309.800 C 153.573 315.080,154.490 323.428,155.040 328.352 C 156.231 339.001,156.202 339.227,153.462 340.971 C 148.630 344.045,91.891 376.812,91.021 377.030 C 89.998 377.287,89.033 376.169,89.379 375.129 C 91.829 367.773,140.717 228.881,141.272 227.700 C 142.154 225.825,142.930 225.548,143.632 226.859 " stroke="none" fill="#333434" fill-rule="evenodd"></path></g></svg>